HIERARCHY
ROOT Hips
{
	OFFSET 0.00000 0.00000 0.00000
	CHANNELS 6 Xposition Yposition Zposition Zrotation Yrotation Xrotation 
	JOINT LHipJoint
	{
		OFFSET 0 0 0
		CHANNELS 3 Zrotation Yrotation Xrotation
		JOINT LeftUpLeg
		{
			OFFSET 1.65674 -1.80282 0.62477
			CHANNELS 3 Zrotation Yrotation Xrotation
			JOINT LeftLeg
			{
				OFFSET 2.59720 -7.13576 0.00000
				CHANNELS 3 Zrotation Yrotation Xrotation
				JOINT LeftFoot
				{
					OFFSET 2.49236 -6.84770 0.00000
					CHANNELS 3 Zrotation Yrotation Xrotation
					JOINT LeftToeBase
					{
						OFFSET 0.19704 -0.54136 2.14581
						CHANNELS 3 Zrotation Yrotation Xrotation
						End Site
						{
							OFFSET 0.00000 -0.00000 1.11249
						}
					}
				}
			}
		}
	}
	JOINT RHipJoint
	{
		OFFSET 0 0 0
		CHANNELS 3 Zrotation Yrotation Xrotation
		JOINT RightUpLeg
		{
			OFFSET -1.61070 -1.80282 0.62476
			CHANNELS 3 Zrotation Yrotation Xrotation
			JOINT RightLeg
			{
				OFFSET -2.59502 -7.12977 0.00000
				CHANNELS 3 Zrotation Yrotation Xrotation
				JOINT RightFoot
				{
					OFFSET -2.46780 -6.78024 0.00000
					CHANNELS 3 Zrotation Yrotation Xrotation
					JOINT RightToeBase
					{
						OFFSET -0.23024 -0.63258 2.13368
						CHANNELS 3 Zrotation Yrotation Xrotation
						End Site
						{
							OFFSET -0.00000 -0.00000 1.11569
						}
					}
				}
			}
		}
	}
	JOINT LowerBack
	{
		OFFSET 0 0 0
		CHANNELS 3 Zrotation Yrotation Xrotation
		JOINT Spine
		{
			OFFSET 0.01961 2.05450 -0.14112
			CHANNELS 3 Zrotation Yrotation Xrotation
			JOINT Spine1
			{
				OFFSET 0.01021 2.06436 -0.05921
				CHANNELS 3 Zrotation Yrotation Xrotation
				JOINT Neck
				{
					OFFSET 0 0 0
					CHANNELS 3 Zrotation Yrotation Xrotation
					JOINT Neck1
					{
						OFFSET 0.00713 1.56711 0.14968
						CHANNELS 3 Zrotation Yrotation Xrotation
						JOINT Head
						{
							OFFSET 0.03429 1.56041 -0.10006
							CHANNELS 3 Zrotation Yrotation Xrotation
							End Site
							{
								OFFSET 0.01305 1.62560 -0.05265
							}
						}
					}
				}
				JOINT LeftShoulder
				{
					OFFSET 0 0 0
					CHANNELS 3 Zrotation Yrotation Xrotation
					JOINT LeftArm
					{
						OFFSET 3.54205 0.90436 -0.17364
						CHANNELS 3 Zrotation Yrotation Xrotation
						JOINT LeftForeArm
						{
							OFFSET 4.86513 -0.00000 -0.00000
							CHANNELS 3 Zrotation Yrotation Xrotation
							JOINT LeftHand
							{
								OFFSET 3.35554 -0.00000 0.00000
								CHANNELS 3 Zrotation Yrotation Xrotation
								JOINT LeftFingerBase
								{
									OFFSET 0 0 0
									CHANNELS 3 Zrotation Yrotation Xrotation
									JOINT LeftHandIndex1
									{
										OFFSET 0.66117 -0.00000 0.00000
										CHANNELS 3 Zrotation Yrotation Xrotation
										End Site
										{
											OFFSET 0.53306 -0.00000 0.00000
										}
									}
								}
								JOINT LThumb
								{
									OFFSET 0 0 0
									CHANNELS 3 Zrotation Yrotation Xrotation
									End Site
									{
										OFFSET 0.54120 -0.00000 0.54120
									}
								}
							}
						}
					}
				}
				JOINT RightShoulder
				{
					OFFSET 0 0 0
					CHANNELS 3 Zrotation Yrotation Xrotation
					JOINT RightArm
					{
						OFFSET -3.49802 0.75994 -0.32616
						CHANNELS 3 Zrotation Yrotation Xrotation
						JOINT RightForeArm
						{
							OFFSET -5.02649 -0.00000 0.00000
							CHANNELS 3 Zrotation Yrotation Xrotation
							JOINT RightHand
							{
								OFFSET -3.36431 -0.00000 0.00000
								CHANNELS 3 Zrotation Yrotation Xrotation
								JOINT RightFingerBase
								{
									OFFSET 0 0 0
									CHANNELS 3 Zrotation Yrotation Xrotation
									JOINT RightHandIndex1
									{
										OFFSET -0.73041 -0.00000 0.00000
										CHANNELS 3 Zrotation Yrotation Xrotation
										End Site
										{
											OFFSET -0.58887 -0.00000 0.00000
										}
									}
								}
								JOINT RThumb
								{
									OFFSET 0 0 0
									CHANNELS 3 Zrotation Yrotation Xrotation
									End Site
									{
										OFFSET -0.59786 -0.00000 0.59786
									}
								}
							}
						}
					}
				}
			}
		}
	}
}
MOTION
Frames: 11
Frame Time: .0083333
9.9638 11.4662 -2.5442 10.3737 8.8024 23.5102 0.0000 0.0000 0.0000 -27.2615 -30.4481 -80.9242 26.7487 18.8710 110.0958 5.3758 20.4847 -53.2438 0.0338 -1.1862 -3.2613 0.0000 0.0000 0.0000 -16.7693 2.7221 -99.9538 -25.1651 -19.3480 105.2611 -1.2478 6.5834 -19.9654 -0.0437 1.3498 -3.7118 11.9946 -5.7626 49.3711 4.7198 -0.2225 13.2613 -0.2964 0.0936 -5.1839 -7.2251 -10.7550 -14.6713 11.4615 -13.6371 -2.8973 3.6018 -6.5220 2.7515 -0.0000 0.0000 0.0000 -89.1450 -17.3072 44.9849 47.8110 -52.0736 -24.4366 -0.0000 0.0000 -38.8583 31.6033 11.2884 6.8676 -7.1250 0.0000 -0.0000 4.0787 43.1332 -0.1882 -0.0000 0.0000 0.0000 25.0944 55.4698 2.2785 -22.9434 34.0269 -7.1066 0.0000 0.0000 1.4678 -52.9315 34.4862 -36.8521 7.1250 -0.0000 -0.0000 -10.4042 18.0762 -13.2966
9.9570 11.4069 -2.5473 10.1305 9.3104 23.3326 0.0000 0.0000 0.0000 -26.8967 -30.7157 -81.1126 26.9502 18.8001 110.7200 5.3868 20.2423 -53.1355 0.0251 -1.0232 -2.8127 0.0000 0.0000 0.0000 -16.4791 2.4901 -100.0448 -25.3418 -19.3016 105.7950 -1.2632 6.6921 -20.0885 -0.0327 1.1676 -3.2102 13.5069 -6.6924 48.8246 3.6528 -0.8165 13.4382 -1.8804 -0.0436 -4.8305 -6.4075 -10.6567 -14.0725 12.2159 -13.6726 -3.0433 3.7293 -6.5435 2.6340 0.0000 -0.0000 0.0000 -87.3221 -17.5431 44.9750 47.9588 -52.1383 -24.5532 -0.0000 0.0000 -38.9842 31.1290 11.5129 6.8731 -7.1250 0.0000 -0.0000 3.6336 43.3350 -0.1495 0.0000 -0.0000 0.0000 27.0354 55.7235 2.3525 -22.8734 33.9501 -7.0675 0.0000 0.0000 1.8611 -53.1681 34.8412 -37.3361 7.1250 -0.0000 -0.0000 -10.3946 18.6044 -13.3438
9.9486 11.3654 -2.5480 9.9041 9.5694 22.9963 0.0000 0.0000 0.0000 -26.5903 -30.8008 -81.1020 27.1098 18.7422 111.2158 5.3332 20.2973 -52.9915 0.0244 -1.0094 -2.7746 0.0000 0.0000 0.0000 -16.2264 2.5310 -99.9247 -25.4981 -19.2592 106.2686 -1.3017 6.4439 -20.4055 -0.0425 1.3300 -3.6574 13.0951 -6.3548 49.6271 4.4533 -0.3450 13.0456 -0.9856 0.0700 -5.3710 -6.6595 -10.7771 -13.8787 11.5528 -13.8012 -2.7822 3.5616 -6.6232 2.6525 -0.0000 -0.0000 0.0000 -88.3443 -17.1244 45.1922 48.3218 -52.2958 -24.8401 -0.0000 0.0000 -38.6006 30.4332 11.8302 6.8676 -7.1250 0.0000 -0.0000 2.9767 43.6144 -0.1019 -0.0000 -0.0000 0.0000 26.7548 54.9544 2.9657 -23.1430 34.2448 -7.2186 0.0000 0.0000 2.3610 -53.7532 34.9381 -37.9949 7.1250 -0.0000 -0.0000 -10.6511 19.0580 -13.7339
9.9450 11.3390 -2.5520 9.6598 9.5770 22.4988 0.0000 0.0000 0.0000 -26.4999 -30.5529 -80.8648 27.2305 18.6974 111.5919 5.3655 20.3217 -53.1125 0.0248 -1.0165 -2.7941 0.0000 0.0000 0.0000 -16.0249 2.8249 -99.5955 -25.6003 -19.2308 106.5785 -1.3614 6.3702 -20.8836 -0.0635 1.6261 -4.4734 13.6767 -6.6773 50.1964 3.9646 -0.3837 12.8910 -1.7109 0.0818 -5.5662 -6.2468 -10.7987 -13.6386 11.9201 -13.9106 -2.7998 3.6089 -6.6764 2.6251 -0.0000 0.0000 0.0000 -87.6142 -17.2095 45.2609 48.2372 -52.2593 -24.7732 -0.0000 0.0000 -38.5638 30.3910 11.2566 6.5310 -7.1250 0.0000 -0.0000 2.9686 42.9533 -0.1501 -0.0000 0.0000 0.0000 28.1739 54.6705 3.1698 -23.3545 34.4742 -7.3380 0.0000 0.0000 3.4567 -55.1044 35.1129 -39.5108 7.1250 -0.0000 -0.0000 -11.2579 20.0752 -14.6589
9.9435 11.3052 -2.5525 9.6034 9.9134 22.4563 0.0000 0.0000 0.0000 -26.3329 -30.8161 -81.0295 27.3314 18.6592 111.9071 5.3392 20.4865 -53.1248 0.0372 -1.2456 -3.4248 0.0000 0.0000 0.0000 -15.9650 2.5483 -99.7399 -25.7397 -19.1911 107.0021 -1.3982 6.7761 -21.1569 -0.0636 1.6271 -4.4763 13.9162 -6.8125 49.8360 4.0991 -0.4833 13.0673 -1.6444 0.0554 -5.3102 -6.8713 -10.8524 -13.8928 12.4635 -13.9149 -2.5531 3.8390 -6.6401 2.8282 0.0000 -0.0000 0.0000 -87.8350 -17.6250 45.2998 47.9273 -52.1246 -24.5284 -0.0000 0.0000 -38.2143 30.5560 10.9480 6.3973 -7.1250 0.0000 -0.0000 3.1341 42.6188 -0.1843 0.0000 -0.0000 0.0000 28.1645 54.6461 2.9447 -23.5331 34.6666 -7.4393 0.0000 0.0000 3.9279 -56.0963 35.3931 -40.7545 7.1250 -0.0000 -0.0000 -11.6427 21.0060 -15.2839
9.9480 11.2807 -2.5543 9.6738 10.0356 22.4530 0.0000 0.0000 0.0000 -26.3778 -31.1025 -81.0680 27.3903 18.6367 112.0913 5.2523 20.9577 -53.1252 0.0740 -1.7546 -4.8280 0.0000 0.0000 0.0000 -16.1143 2.3476 -99.8397 -25.8380 -19.1624 107.3013 -1.4191 7.0990 -21.3105 -0.0553 1.5174 -4.1735 13.8334 -6.8153 49.4167 4.2840 -0.6055 13.3944 -1.3863 0.0193 -4.9061 -7.4805 -10.8698 -14.3531 12.8119 -13.8471 -2.4147 4.0129 -6.5714 3.0052 -0.0000 -0.0000 0.0000 -88.1210 -18.0896 45.2707 48.0908 -52.1958 -24.6574 -0.0000 0.0000 -38.3745 31.0526 11.5379 6.8671 -7.1250 0.0000 -0.0000 3.5622 43.3546 -0.1448 -0.0000 -0.0000 0.0000 27.7882 54.8719 2.4203 -23.6768 34.8206 -7.5212 0.0000 0.0000 4.0944 -56.1656 35.6177 -40.9846 7.1250 -0.0000 -0.0000 -11.5904 21.2920 -15.2453
9.9484 11.2616 -2.5545 9.7197 10.1526 22.3495 0.0000 0.0000 0.0000 -26.4801 -31.2852 -80.8888 27.4418 18.6168 112.2524 5.2739 21.1743 -53.3285 0.0660 -1.6578 -4.5607 0.0000 0.0000 0.0000 -16.1859 2.2493 -99.7437 -25.8995 -19.1442 107.4887 -1.4635 7.1007 -21.6486 -0.0664 1.6625 -4.5737 13.7136 -6.8554 49.2481 4.4322 -0.7372 13.6474 -1.1350 -0.0293 -4.6181 -7.8038 -10.8625 -14.9083 12.8875 -13.7711 -2.2784 4.0631 -6.5063 3.1515 0.0000 0.0000 0.0000 -88.3371 -18.5693 45.0962 48.1931 -52.2402 -24.7383 -0.0000 0.0000 -38.8993 31.4656 11.4985 6.9553 -7.1250 0.0000 -0.0000 3.9442 43.3593 -0.1600 0.0000 0.0000 0.0000 27.7803 55.0634 1.9549 -24.0610 35.2287 -7.7417 0.0000 0.0000 4.1884 -55.7754 35.6884 -40.6170 7.1250 -0.0000 -0.0000 -11.3709 21.1185 -14.9284
9.9458 11.2476 -2.5561 9.7451 10.0889 22.2973 0.0000 0.0000 0.0000 -26.5672 -31.1693 -80.9489 27.4929 18.5969 112.4125 5.2390 21.2275 -53.2474 0.0307 -1.1315 -3.1108 0.0000 0.0000 0.0000 -16.2659 2.2991 -99.8788 -25.9595 -19.1263 107.6719 -1.4930 6.9756 -21.8740 -0.0964 2.0025 -5.5127 13.7047 -6.7615 49.2068 4.3029 -0.6464 13.4912 -1.3084 0.0070 -4.7850 -7.4581 -10.8512 -14.1928 12.8883 -13.8352 -2.4218 4.0407 -6.5681 2.9830 -0.0000 0.0000 0.0000 -88.0979 -18.4495 45.2299 48.1270 -52.2116 -24.6860 -0.0000 0.0000 -38.8260 31.4861 10.6055 6.4314 -7.1250 0.0000 -0.0000 3.9935 42.3297 -0.2636 -0.0000 0.0000 0.0000 29.2038 54.5450 2.3133 -24.6390 35.8328 -8.0776 0.0000 0.0000 4.1273 -54.9301 35.5992 -39.6650 7.1250 -0.0000 -0.0000 -10.9880 20.4923 -14.3433
9.9505 11.2489 -2.5625 9.7594 9.9451 22.1735 0.0000 0.0000 0.0000 -26.7497 -30.9228 -80.8911 27.5035 18.5927 112.4460 5.1264 21.3869 -52.9782 0.0406 -1.3003 -3.5754 0.0000 0.0000 0.0000 -16.2942 2.4148 -99.9290 -25.9843 -19.1188 107.7477 -1.5099 6.6983 -22.0111 -0.1793 2.7277 -7.5216 13.4853 -6.5298 49.2955 4.3624 -0.4534 13.3606 -1.2244 0.0718 -4.9503 -7.1594 -10.9384 -13.7969 12.6891 -14.0010 -2.5299 3.9418 -6.6763 2.8676 0.0000 -0.0000 0.0000 -88.2141 -18.3949 45.3869 48.0413 -52.1743 -24.6183 -0.0000 0.0000 -38.5186 31.5888 10.5482 6.4228 -7.1250 0.0000 -0.0000 4.0885 42.2749 -0.2754 0.0000 -0.0000 0.0000 30.3053 53.9838 2.4807 -25.4683 36.6788 -8.5681 0.0000 0.0000 3.8524 -53.3497 35.1518 -37.7335 7.1250 -0.0000 -0.0000 -10.3718 19.0504 -13.3632
9.9528 11.2492 -2.5676 9.7974 9.8762 21.9993 0.0000 0.0000 0.0000 -26.9359 -30.7728 -80.6798 27.5019 18.5934 112.4407 4.9667 21.8008 -52.7162 0.0889 -1.9231 -5.2932 0.0000 0.0000 0.0000 -16.3267 2.5139 -99.7455 -25.9785 -19.1206 107.7298 -1.5039 6.4971 -21.9753 -0.2125 2.9677 -8.1890 14.1189 -6.9015 48.8881 3.5392 -0.7762 13.5629 -2.2736 0.0195 -4.6486 -6.2255 -10.9768 -13.8216 12.8672 -14.1876 -2.6756 3.8409 -6.7749 2.7975 0.0000 -0.0000 0.0000 -86.9877 -18.6894 45.4374 48.1586 -52.2253 -24.7110 -0.0000 0.0000 -39.0218 32.1977 10.6277 6.6240 -7.1250 0.0000 -0.0000 4.6406 42.4362 -0.2943 0.0000 -0.0000 0.0000 32.9617 53.6457 2.1935 -26.7887 37.9770 -9.3688 0.0000 0.0000 4.3751 -51.6668 34.4909 -35.6093 7.1250 -0.0000 -0.0000 -9.7674 17.3551 -12.3840
9.9513 11.2435 -2.5669 9.7514 9.6811 21.9832 0.0000 0.0000 0.0000 -26.8381 -30.6371 -80.8083 27.5279 18.5832 112.5223 4.8713 22.0687 -52.5759 0.1181 -2.2159 -6.1028 0.0000 0.0000 0.0000 -16.4755 2.7991 -99.6851 -25.9650 -19.1246 107.6888 -1.4586 6.6048 -21.6271 -0.1148 2.1848 -6.0166 13.6618 -6.4237 48.6034 3.9744 -0.4718 13.8148 -1.7512 0.1392 -4.3439 -6.5444 -11.0778 -14.5675 12.7134 -14.2566 -2.4904 3.7956 -6.7811 2.9806 -0.0000 -0.0000 0.0000 -87.6714 -19.1112 45.6603 48.2228 -52.2531 -24.7618 -0.0000 0.0000 -39.2328 32.8479 9.9783 6.3833 -7.1250 0.0000 -0.0000 5.2394 41.7501 -0.4213 -0.0000 -0.0000 0.0000 33.4974 52.5148 2.0238 -28.4519 39.5290 -10.4101 0.0000 0.0000 4.2325 -50.8361 34.1243 -34.5562 7.1250 -0.0000 -0.0000 -9.4759 16.4889 -11.9114
